#!OML:ASF E:\acrobat2\Project_11_07_03\Capture day 1\Session 1\Acrobat.ASF
:FULLY-SPECIFIED
:DEGREES
353
root 12.4087 15.4793 24.3784 -69.5928 -84.5162 -282.629
lowerback 13.6891 1.72365 3.39093
upperback 7.74672 2.25884 -0.0802485
thorax 0.634358 1.0774 -2.27828
lowerneck 2.59393 3.99104 -2.20858
upperneck -5.04315 4.95776 -4.89391
head -1.94922 2.62146 -1.28872
rclavicle -4.77083e-015 -2.38542e-014
rhumerus -32.3569 -20.4501 -50.5889
rradius 24.703
rwrist -15.2446
rhand -20.183 -51.4516
rfingers 7.12502
rthumb 6.16314 -81.3419
lclavicle -4.77083e-015 -2.38542e-014
lhumerus 10.0781 -33.3312 11.8277
lradius 29.6515
lwrist 17.3205
lhand -33.816 -18.8873
lfingers 7.12502
lthumb -7.00193 10.9769
rfemur -36.4644 -14.0075 -3.48382
rtibia 73.3635
rfoot -26.2863 -9.83148
rtoes -13.7394
lfemur -37.5957 -7.26099 -2.47725
ltibia 59.6817
lfoot -1.63274 -33.6973
ltoes 48.9059
354
root 12.3878 15.6037 24.5093 -80.4806 -84.8273 -271.796
lowerback 13.5179 1.49599 3.27978
upperback 7.566 1.95392 -0.119746
thorax 0.510969 0.921496 -2.21766
lowerneck 2.58504 4.26677 -2.39192
upperneck -5.08861 5.33231 -4.61576
head -1.96844 2.80667 -1.17975
rclavicle -4.77083e-015 -1.27222e-014
rhumerus -34.5502 -20.8075 -49.0887
rradius 24.5593
rwrist -14.8582
rhand -20.2169 -51.7257
rfingers 7.12502
rthumb 6.13043 -81.617
lclavicle -4.77083e-015 -1.27222e-014
lhumerus 11.1619 -33.4408 12.8996
lradius 30.4219
lwrist 17.1878
lhand -33.4514 -19.5604
lfingers 7.12502
lthumb -6.64996 10.3152
rfemur -35.3689 -13.4947 -3.45167
rtibia 71.0728
rfoot -26.588 -11.304
rtoes -15.6331
lfemur -36.5406 -7.02916 -3.01663
ltibia 58.6796
lfoot -2.68128 -33.1535
ltoes 49.2422
355
root 12.3656 15.7272 24.628 -93.3965 -84.5648 -258.826
lowerback 13.279 1.40002 2.78783
upperback 7.33503 1.78168 -0.376931
thorax 0.372465 0.827023 -2.18506
lowerneck 2.60442 4.49679 -1.95873
upperneck -5.12168 5.668 -4.51154
head -1.96852 2.9658 -1.22835
rclavicle -4.69132e-014 -1.98785e-014
rhumerus -36.4646 -21.3831 -47.6473
rradius 24.0534
rwrist -13.8116
rhand -19.9497 -51.8623
rfingers 7.12502
rthumb 6.38834 -81.746
lclavicle -4.69132e-014 -1.98785e-014
lhumerus 12.3121 -33.2818 13.9287
lradius 31.237
lwrist 16.785
lhand -32.0533 -18.1283
lfingers 7.12502
lthumb -5.30022 11.7854
rfemur -34.5187 -12.8671 -3.80012
rtibia 68.6552
rfoot -26.7127 -12.3444
rtoes -15.212
lfemur -35.5207 -6.60454 -3.91154
ltibia 57.6731
lfoot -3.67257 -32.7223
ltoes 49.4908
356
root 12.3397 15.8465 24.7368 -105.625 -83.6811 -246.436
lowerback 12.8766 1.39921 1.93103
upperback 7.0986 1.69217 -0.800045
thorax 0.315125 0.769471 -2.12556
lowerneck 2.66935 4.6743 -1.35622
upperneck -5.30279 5.93312 -4.43301
head -2.01954 3.08972 -1.317
rclavicle -3.18055e-014 3.18055e-015
rhumerus -38.3694 -21.7911 -46.3932
rradius 23.7989
rwrist -12.4572
rhand -19.7345 -51.9933
rfingers 7.12502
rthumb 6.59613 -81.8706
lclavicle -3.18055e-014 3.18055e-015
lhumerus 13.2725 -33.1383 14.9188
lradius 32.1215
lwrist 16.5926
lhand -31.0961 -17.7789
lfingers 7.12502
lthumb -4.37592 12.1559
rfemur -34.1082 -12.3818 -4.57154
rtibia 66.4743
rfoot -26.9954 -12.3258
rtoes -11.4325
lfemur -34.5125 -6.04707 -5.10772
ltibia 56.6618
lfoot -4.6177 -32.3569
ltoes 49.521
357
root 12.3093 15.9654 24.8565 -117.079 -82.8175 -234.958
lowerback 12.532 1.34563 1.5673
upperback 6.96301 1.58218 -1.08634
thorax 0.348163 0.711435 -2.1988
lowerneck 2.67145 4.87134 -0.997083
upperneck -5.58072 6.19877 -4.53258
head -2.09219 3.22172 -1.42231
rclavicle 7.95139e-016 6.36111e-015
rhumerus -39.9537 -21.1852 -45.5577
rradius 23.9389
rwrist -11.9649
rhand -19.7019 -52.1016
rfingers 7.12502
rthumb 6.62758 -81.9779
lclavicle 7.95139e-016 6.36111e-015
lhumerus 13.9143 -33.1782 16.0805
lradius 33.0441
lwrist 16.6992
lhand -30.5881 -17.7032
lfingers 7.12502
lthumb -3.88543 12.2411
rfemur -33.5748 -11.7543 -4.92651
rtibia 64.3546
rfoot -27.2092 -12.4351
rtoes -8.97799
lfemur -33.2337 -5.32636 -5.93088
ltibia 55.5092
lfoot -5.44186 -31.964
ltoes 49.4529
358
root 12.2842 16.0911 24.9849 -124.911 -81.8884 -227.106
lowerback 12.3106 1.18205 1.38688
upperback 6.79776 1.3508 -1.28969
thorax 0.282153 0.595267 -2.27861
lowerneck 2.48875 5.10932 -0.76515
upperneck -5.61857 6.52323 -4.68029
head -2.053 3.3807 -1.50959
rclavicle -5.56597e-015 4.77083e-015
rhumerus -41.2673 -20.2563 -44.7865
rradius 24.116
rwrist -11.7225
rhand -19.658 -51.9554
rfingers 7.12502
rthumb 6.66993 -81.8304
lclavicle -5.56597e-015 4.77083e-015
lhumerus 14.3772 -33.2451 17.5103
lradius 33.921
lwrist 16.6074
lhand -30.1286 -17.7787
lfingers 7.12502
lthumb -3.44167 12.1732
rfemur -32.6995 -11.1165 -5.19379
rtibia 61.8308
rfoot -27.0761 -13.3293
rtoes -8.9906
lfemur -32.0548 -4.81118 -6.73055
ltibia 54.3497
lfoot -5.95768 -31.5469
ltoes 49.6683
359
root 12.261 16.2199 25.0997 -132.574 -81.548 -219.172
lowerback 11.934 0.844111 1.86086
upperback 6.51742 0.969495 -1.31041
thorax 0.183139 0.421751 -2.51901
lowerneck 2.27532 5.42523 -0.739069
upperneck -5.53411 6.96912 -4.45754
head -1.98366 3.59412 -1.44212
rclavicle -1.15295e-014 -3.18055e-015
rhumerus -42.4473 -19.5374 -43.9451
rradius 24.2348
rwrist -10.862
rhand -19.0954 -52.3417
rfingers 7.12502
rthumb 7.2131 -82.1987
lclavicle -1.15295e-014 -3.18055e-015
lhumerus 14.7064 -33.5638 18.812
lradius 34.7963
lwrist 16.7684
lhand -29.6826 -17.9906
lfingers 7.12502
lthumb -3.01096 11.9679
rfemur -31.9681 -10.7384 -4.52987
rtibia 59.273
rfoot -27.0174 -14.8427
rtoes -11.1014
lfemur -31.3464 -4.38568 -6.59949
ltibia 53.3512
lfoot -6.27515 -31.1421
ltoes 50.2776
360
root 12.2314 16.323 25.2063 -142.035 -80.7117 -209.915
lowerback 11.8948 0.681037 2.21857
upperback 6.42459 0.790007 -1.33323
thorax 0.104636 0.339251 -2.72433
lowerneck 2.22058 5.7491 -0.571251
upperneck -5.68761 7.41315 -4.34675
head -2.01243 3.81105 -1.44632
rclavicle -9.14409e-015 1.94809e-014
rhumerus -43.3687 -18.5679 -43.3374
rradius 24.3746
rwrist -10.3971
rhand -18.3444 -52.8564
rfingers 7.12502
rthumb 7.93799 -82.6874
lclavicle -9.14409e-015 1.94809e-014
lhumerus 14.9862 -33.9006 20.0955
lradius 35.5199
lwrist 16.9505
lhand -29.3225 -18.1633
lfingers 7.12502
lthumb -2.66315 11.7998
rfemur -31.0862 -9.94255 -3.83854
rtibia 57.0221
rfoot -27.0675 -15.5562
rtoes -10.2803
lfemur -29.839 -3.60183 -6.33807
ltibia 52.1416
lfoot -8.068 -30.3658
ltoes 49.1289
361
root 12.1969 16.4403 25.316 -145.05 -79.3327 -206.891
lowerback 11.5538 0.542324 1.72969
upperback 6.29691 0.556846 -1.56189
thorax 0.13484 0.215789 -2.65646
lowerneck 2.24012 6.05229 -0.249264
upperneck -5.91509 7.81828 -4.48552
head -2.06387 4.01235 -1.55922
rclavicle 1.09332e-014 -1.27222e-014
rhumerus -44.1126 -17.6084 -42.7649
rradius 24.5386
rwrist -10.3655
rhand -18.1276 -52.3332
rfingers 7.12502
rthumb 8.14717 -82.1562
lclavicle 1.09332e-014 -1.27222e-014
lhumerus 15.125 -33.9286 21.7067
lradius 36.0641
lwrist 16.4593
lhand -28.9183 -18.3701
lfingers 7.12502
lthumb -2.27276 11.5976
rfemur -30.3919 -9.74751 -4.18701
rtibia 54.9608
rfoot -27.1892 -15.6991
rtoes -8.2537
lfemur -28.59 -3.01766 -7.20472
ltibia 50.8359
lfoot -8.66139 -29.6811
ltoes 49.1401
362
root 12.1611 16.5552 25.4212 -148.668 -78.1952 -203.289
lowerback 11.2071 0.334433 1.68158
upperback 6.19564 0.276928 -1.73794
thorax 0.200824 0.0792105 -2.7791
lowerneck 2.3418 6.3367 0.0116108
upperneck -6.19867 8.20108 -4.48649
head -2.15542 4.20122 -1.62403
rclavicle 1.11319e-014 -3.53837e-014
rhumerus -44.7493 -17.0001 -42.1024
rradius 24.7638
rwrist -10.158
rhand -18.2234 -51.9246
rfingers 7.12502
rthumb 8.05469 -81.7511
lclavicle 1.11319e-014 -3.53837e-014
lhumerus 15.208 -34.0763 23.1612
lradius 36.6257
lwrist 15.7416
lhand -28.47 -18.7784
lfingers 7.12502
lthumb -1.8398 11.1935
rfemur -29.5718 -9.7053 -4.05702
rtibia 52.8104
rfoot -26.891 -16.2436
rtoes -8.43917
lfemur -27.3429 -2.4517 -7.62714
ltibia 49.4931
lfoot -9.10862 -29.0171
ltoes 49.227
363
root 12.1255 16.6658 25.5207 -152.054 -77.1611 -199.887
lowerback 10.818 0.090989 1.86357
upperback 6.10936 -0.0287409 -1.9082
thorax 0.304707 -0.0640544 -3.02509
lowerneck 2.38731 6.61161 0.29601
upperneck -6.42114 8.58279 -4.38107
head -2.21951 4.38434 -1.65491
rclavicle 1.12313e-014 4.9895e-014
rhumerus -45.2857 -16.2299 -41.6083
rradius 25.1995
rwrist -10.3859
rhand -18.0546 -52.2253
rfingers 7.12502
rthumb 8.2176 -82.0455
lclavicle 1.12313e-014 4.9895e-014
lhumerus 15.3384 -34.3629 24.5076
lradius 37.1896
lwrist 15.1469
lhand -28.0931 -19.2694
lfingers 7.12502
lthumb -1.47584 10.7052
rfemur -28.7574 -9.81822 -3.74565
rtibia 50.627
rfoot -26.1624 -16.9203
rtoes -9.32932
lfemur -26.2303 -1.93837 -7.82742
ltibia 48.2963
lfoot -9.88357 -28.3805
ltoes 48.9263
364
root 12.0894 16.7715 25.6138 -155.735 -76.2109 -196.046
lowerback 10.334 -0.143085 2.26685
upperback 5.98708 -0.299379 -1.97882
thorax 0.42271 -0.183889 -3.29867
lowerneck 2.28608 6.90946 0.598883
upperneck -6.45652 9.00494 -4.25288
head -2.19389 4.58347 -1.66851
rclavicle 8.94531e-015 -2.48481e-015
rhumerus -45.7803 -15.2158 -41.2612
rradius 25.7403
rwrist -10.9509
rhand -17.4693 -52.5787
rfingers 7.12502
rthumb 8.78245 -82.376
lclavicle 8.94531e-015 -2.48481e-015
lhumerus 15.4212 -34.5635 26.0058
lradius 37.7149
lwrist 14.5024
lhand -27.7975 -19.4648
lfingers 7.12502
lthumb -1.19037 10.5116
rfemur -28.105 -9.96674 -3.08645
rtibia 48.6676
rfoot -25.4514 -17.4132
rtoes -9.75949
lfemur -25.3084 -1.26326 -7.6732
ltibia 47.1745
lfoot -10.8098 -27.6751
ltoes 48.0707
